<svg width="24" height="24" viewBox="0 0 24 24" fill="none" xmlns="http://www.w3.org/2000/svg">
  <path d="M12 7C14.76 7 17 9.24 17 12C17 12.65 16.87 13.26 16.64 13.83L19.56 16.75C21.07 15.49 22.26 13.86 22.99 12C21.27 7.11 17 4 12 4C10.6 4 9.26 4.25 8.03 4.7L10.13 6.8C10.72 7.05 11.34 7.2 12 7.2V7Z" fill="#ffffff" opacity="0.7"/>
  <path d="M2 4.27L4.28 6.55L4.73 7C3.08 8.3 1.78 10 1.01 12C2.73 16.89 7 20 12 20C13.55 20 15.03 19.7 16.38 19.18L16.81 19.61L19.73 22.53L21 21.26L3.27 3L2 4.27ZM7.53 9.8L9.08 11.35C9.03 11.56 9 11.78 9 12C9 13.66 10.34 15 12 15C12.22 15 12.44 14.97 12.65 14.92L14.2 16.47C13.53 16.8 12.79 17 12 17C9.24 17 7 14.76 7 12C7 11.21 7.2 10.47 7.53 9.8Z" fill="#ffffff" opacity="0.7"/>
</svg>
